<svg xmlns="http://www.w3.org/2000/svg" version="1.1" xmlns:xlink="http://www.w3.org/1999/xlink" xmlns:svgjs="http://svgjs.dev/svgjs" viewBox="0 0 800 800"><defs><linearGradient x1="50%" y1="0%" x2="50%" y2="100%" id="ssscribble-grad"><stop stop-color="hsl(353, 98%, 41%)" stop-opacity="1" offset="0%"></stop><stop stop-color="hsl(353, 98%, 41%)" stop-opacity="1" offset="100%"></stop></linearGradient></defs><g fill="none" stroke-width="1.5" stroke="url(#ssscribble-grad)" stroke-linecap="round"><path d="M809.9 560.75C991.91 594.58 1072.56 617.37 984.19 625.65 805.86 629.27 684.44 612.06 700.33 574.22 827.83 538.54 955.19 502.23 992.31 490.13 919.27 526.27 776.52 616.82 636.98 753.15 545.02 886.74 524.55 972.06 554.27 960.03 617.28 861.98 673.99 732.05 706.23 666.34 722.36 729.91 711.6 892.21 684.63 1040.34 650.4 1057.43 613.27 925.71 579.45 756.35 545.62 708.72 516.7 818.68 487.13 979.55 450.31 1059.08 399.52 988.47 324.78 827.72 233.92 683.56 121.49 643.19 6.35 706.65 -75.49 825.88 -103.59 916.11 -55.97 932.47 39.22 872.53 141.86 760.71 179.68 639.63 107.35 527.55 -50.34 450.28 -202.65 405.02 -192.24 380.2 55.66 354.03 -170.09 311.72 -275.06 277.89 -202.15 228.83 -25.78 169.47 103.72 114.95 87.03 61.35 -40.64 23.56 -176.33 10.19 -208.93 31.74 -122.95 91.68 32.11 160.63 170.83 223.89 239.27 239.52 226.99 178.83 162.42 48.51 90.69 -105.94 28.78 -204.64 7.66 -194.62 23.27 -75.28 64.83 60.67 122.03 112.06 179.11 19.51 240.96 -154.41 291.23 -271.25 325.06 -223.67 366.77 14.98 385.49 -126.3 404.73 -236.63 447.73 -146.14 524.56 14.11 638.61 147.39 762.48 194.66 875.61 149.47 932.23 60.22 908.12 -31.77 809.51 -73.77 689.67 -57.78 638.9 6.43 701.85 98.44 862.33 192.74 1014.81 289.21 1050.75 367.96 934.3 428.14 770.98 483.66 704.93 526.92 809.9 560.75Q809.9 560.75 809.9 560.75" opacity="0.35"></path><path d="M774.84 402.59C945.2 434 1036.11 447.28 980.24 444.25 751 436.46 775.82 435.23 931.78 512.2 945.03 608.02 868.34 730.5 744.12 850.39 611.46 924.54 515.67 927.44 468.39 849.21 465.85 736.03 490.81 644.06 520.8 641.83 568.01 827.61 570.32 944.14 530.27 721.3 498.86 671.21 454.8 760.38 396.8 910.79 335.81 1014.88 257.8 994.16 166.59 869.27 43.83 664.48 -16.17 734.53 100.66 860.18 183.71 885.67 223.16 848.27 177.2 769.57 51.78 664.73 -102.88 562.37 -201.19 477.35 -182.59 403.65 -56.27 350.23 88.74 310.37 132.48 276.27 35.21 245.6 -135.14 214.19 -238.2 182.78 -187.17 152.11 -30.42 126.98 114.78 107.59 148.25 103.87 65.16 123.14 -72.16 153.73 -162.45 204.36 -154.97 260.78 -56.1 291.08 84.76 283.38 207.73 216.72 281.94 100.85 293.62 -38.29 263.72 -146.36 205.39 -172.3 152.48 -101.46 120.46 30.79 100.78 132.65 105.12 135.5 125.44 19.29 151.91 -143.24 183.43 -238.77 214.84 -188.68 246.25 -32.38 276.06 107.05 308.83 130.55 347.75 28.49 400.55 -114.15 474.67 -196.64 561.13 -171.38 665.76 -51.25 772.5 94.63 850.82 205.57 884.22 239.92 851.19 206.93 769.39 128.21 665.76 50.82 599.6 3.42 624.82 -11.72 743.29 13.18 903.64 62.7 1009.75 130.41 994.16 200.1 861.07 260.86 716.44 323.12 671.78 371.18 774.84 402.59Q774.84 402.59 774.84 402.59" opacity="0.41"></path><path d="M739.85 241.97C898.07 270.97 995.82 291.4 970.15 307.2 841.64 327.79 691.73 353.32 604.84 393.26 618.53 449.7 710.21 529.77 818.51 631.7 895.82 734.23 900.54 827.38 839.22 882.39 732.03 880.97 615.49 818.86 517.37 715.26 443.4 625.41 402.72 590.45 385.03 645.42 388.03 846.3 383.09 895.16 347.78 686.34 318.78 634.64 274.81 703.81 219.22 839.18 166.39 957.56 108.98 981.27 58.07 902.95 25.51 764.14 18.44 634.15 47.72 564.23 101.15 570.96 176.07 635.53 245.26 717.69 268.58 793.54 229.48 828.85 121.98 820.59 -16.51 776.3 -134.19 707.73 -169.14 632.92 -103.5 551.37 29.9 480.02 147.22 423.1 161.7 367.83 58.07 325.78 -100.14 296.77 -200.36 267.78 -169.4 253.21 -35.8 253.79 113.56 256.04 187.86 274.63 156.81 305.93 46.36 330.5 -68.52 351.33 -126.35 350.94 -105.61 314.53 -14.12 237.6 106.72 123.76 226.38 3.59 309.97 -95.36 351.17 -132.3 354.12 -92.58 333.49 11.39 307.93 128.95 275.03 186.03 255.08 145.84 252 16.29 250.74 -130.26 265.04 -205.34 294.03 -153.68 323.03 -10.54 365.35 126.7 421.29 173.26 479.05 106.66 551.74 -20.97 634.89 -128.53 710.7 -162.26 779.08 -101.32 820.81 18.72 824.3 152.51 782.34 249 700.69 288.43 617.84 271.43 560.73 219.9 570.18 162.06 658.2 104.82 799.1 72.49 930.8 66.3 983.1 76.61 925.3 103.83 787.12 137.91 664.72 176.79 639.63 212.98 739.85 241.97Q739.85 241.97 739.85 241.97" opacity="0.80"></path><path d="M704.89 234.5C850.55 261.08 951.8 294.27 952.81 335.81 857.29 380.57 717.29 438.72 602.97 511.63 559.6 587.66 596.29 672.32 681.27 753.39 780.41 811.89 845.48 839.07 857.99 820.41 819.94 763.7 743.06 677.31 651.43 591.91 553.53 551.33 470.22 575.88 406.5 671.48 355.19 803.85 319.21 920.51 291.59 962.41 268.45 908.13 245.29 781.23 218.71 651.31 192.13 599.01 163.39 649.56 136.41 766.46 113.91 888.93 101.54 947.47 106.79 918.23 124.44 816.8 163.99 687.54 220.92 579.53 271.59 520.71 310.31 521.56 313.52 564.76 266.17 635.56 169.6 701.21 42.78 744.3 -69.87 766.3 -130.39 758.68 -106.51 730.52 -11.67 687.63 113.19 638.87 198.46 593.22 187.19 544.96 80.55 505.95 -65.1 479.37 -161.55 452.79 -148.47 439.9 -40.12 438.05 102.81 433.56 205.04 433.97 224.3 430.8 159.84 412.9 54.96 376.75 -36.92 313.78 -84.91 229.74 -66.62 125.93 3.71 20.3 107.81 -57.73 214.8 -90.1 303.78 -58.95 372.13 21.37 412.25 126.8 432.44 208.74 436.87 218.49 436.7 144.83 441.02 12.1 442.47 -115.05 455.07 -170.98 481.65 -118.68 508.22 11.23 547.52 143.51 596.18 208.05 641.99 176.41 690.51 74.88 732.15 -38 758.03 -114.12 761.69 -114.83 734.31 -46.58 686.3 66.48 617.47 184.39 548.2 275.94 512.68 329.44 525.89 340.41 601.54 322.87 721.1 282.77 849.82 241.88 933.78 211.91 934.02 185.06 846.94 175.26 714.26 180.62 616.16 189.2 608.42 207.91 704.84 234.49Q704.89 234.5 704.89 234.5" opacity="0.10"></path><path d="M669.9 387.42C802.65 411.58 904.24 448.55 927.51 496.76 866.22 544.47 748.61 601.32 626.62 661.83 541.95 713.86 520.81 757.26 556.98 780.35 634.46 778.44 716.74 745.66 777.12 683.35 808.21 613.41 799.09 546.59 759.31 509.61 696.04 525.45 623.69 596.77 554.31 710.68 483.65 828.92 424.43 911.49 378.01 920.69 333.42 853 299.27 733.08 275.11 616.35 250.95 564.31 237.92 597.84 236.94 694.11 237.8 811.48 253.05 892.8 281.85 907.63 309.35 854.45 341.91 753.06 367.94 639.89 370.47 541.43 344.91 482.6 282.14 466.24 190.1 488.48 79.17 532.22 -23.46 579.51 -84.79 628.98 -85.32 662.43 -18.36 677.43 137.84 678.31 155.89 621.45 -30.09 585.06 -121.78 560.9 -124.02 538.17 -41.52 514.36 86.15 487.07 201.75 452.32 261.71 404.97 249.98 348.09 181.81 274.85 92.7 188.13 8.87 103.6 -35.42 25.18 -32.72 -28.72 11.81 -44.03 85.93 -13.85 170.11 59.44 259.2 147.45 335.99 227.17 396.27 262.64 447.07 230.1 484.3 135.03 513.09 8.34 538.21 -97.25 561.54 -135.68 585.71 -83.64 609.87 33.08 633.71 157.89 654.16 234.91 670.94 235.03 677.67 166.22 668.74 65.69 650.33 -30.49 613.34 -80.14 561.48 -70.83 514.54 -8.69 475.11 86.77 462.24 188.38 491.21 282.35 564.16 349.83 673.14 388.98 822.93 382.8 574.64 358.15 669.9 387.42Q669.9 387.42 669.9 387.42" opacity="0.65"></path><path d="M634.84 552.57C754.4 574.32 853.36 602.12 893.79 633.26 864.98 661.82 777.85 688.52 666.4 707.28 562.51 715.93 496.47 708.48 478.16 680.71 506.05 641.45 562.69 587.16 626.63 528.05 689.85 485.34 731.8 466.2 748.54 485.49 745.19 546.6 721.46 642.23 686.19 751.79 641.44 842.91 595.93 889.51 555.68 871.31 513.95 795.7 481.08 684.92 459.34 581.3 437.59 530.54 427.99 549.12 428.72 623.93 430.93 774.18 432.51 833.84 396.31 716.4 346.05 614.46 272.88 524.31 181.16 459.58 88.72 423.1 6.29 415.02 -44.23 425.85 -48.57 453.18 -2.03 482.82 85.91 506.58 218.79 537.75 176.08 538.76 4.84 511.34 -81.14 489.6 -95.9 458.49 -38.42 418.02 67.58 376.31 182.38 323.68 268.16 261.36 303.68 199.91 284.85 134.46 228.1 73.61 148.82 29.27 77.11 6.12 30.19 14.11 10.28 50.34 23.59 114.7 61.24 193.99 117.83 260.14 181.75 297.93 243.34 287.19 306.91 223.33 361.12 119.79 404.15 6.72 446.08 -76.46 478.01 -99.45 499.75 -48.69 521.5 54.92 532.03 170.11 531.11 254.11 529.1 280.7 514.44 246.48 488.56 171.3 450.6 39.62 418.3 -11.09 475.67 82.58 551.09 170.18 648.58 255.7 750.51 328.48 829.89 389.76 868.23 433.02 848.65 462.05 778.81 480.99 676.39 493.85 578.77 506.3 529.69 516.16 548.85 530.83 634.84 552.57Q634.84 552.57 634.84 552.57" opacity="0.99"></path><path d="M599.9 569.8C706.05 589.13 799.62 603.35 851.66 611.22 850.96 617.22 797.43 613.7 710.14 598.68 609.7 579.78 521.61 549.07 461.87 509.43 436.24 473.89 443.83 440.88 474.12 420.79 522.43 425.02 571.88 456.41 612.81 517.98 648.55 601.12 668.49 696.06 673.86 783.11 671.67 840.41 659.72 853.68 642.41 815.02 622.71 736.88 602.13 637.02 582.8 546.35 563.47 497.72 546.31 503.6 529.55 557.32 510.41 643.86 487.19 732.85 455.89 799.63 417.02 832.72 365.25 822.19 299.72 775.18 228.99 701.16 151.79 616.39 78.14 535.65 22.52 463.47 -7.98 409.97 -2.48 375.17 37.12 356.13 107.88 349.61 194.15 349.05 267.27 355.4 309.8 359.9 303.04 358.39 243.54 358.06 146.05 348.98 39.9 329.66 -39.54 310.33 -63.94 281.67 -29.45 245.55 51.18 210.6 153.24 170.94 247.98 131.09 329.84 85.49 259.84 79.94 172.06 139.65 118.16 195.05 83.68 256.9 70.23 310.81 72.77 337.7 91.76 330.9 120.36 283.66 156.79 202.72 194.5 102.73 228.47 8.73 263.91 -52.46 292.34 -62.27 311.67 -13.68 331 76.97 340.31 180.75 341.33 266.37 343.81 312.51 341.27 310.25 338.33 267.14 343.23 194.25 356.07 116.65 383.33 53.63 426.57 12.19 488.8 3.71 568.04 24.82 651.64 70.23 733.58 130.99 797.43 196.33 828.18 265.76 817.82 328.31 763.97 380.71 683.4 429.22 592.35 467.91 519.17 498.36 492.13 526.95 520.45 550.47 599.9 569.8Q599.9 569.8 599.9 569.8" opacity="0.11"></path><path d="M564.45 422.36C746.49 456.19 824.11 450.98 745.51 415.16 578.47 389.87 440.05 370.01 387.98 403.22 416.4 506.15 475.78 664.02 515.73 794.54 552.83 807.13 552.67 680.61 518.85 511.26 485.02 463.63 420.73 566.1 325 709.05 226.43 793.76 114.26 755.55 41.5 643.21 49.24 502.12 151.77 392 294.02 324.89 347.82 280.17 256.49 249.92 74.45 216.09 -30.11 182.27 43.16 148.07 210.5 134.16 351.07 142.65 381.52 199.97 329.55 296.72 232.91 364.73 165.76 367.06 147.56 257.55 151.27 89.81 180.2 -26.36 214.03 21.26 247.85 190.61 283.38 330.84 338.29 343.05 415.11 237.32 535.05 115.33 676.03 56.74 772.34 67.87 777.77 140.52 661.99 224.43 519.44 318.87 459.88 388.53 564.45 422.36Q564.45 422.36 564.45 422.36" opacity="0.43"></path><path d="M529.84 253.29C688.06 282.28 781.77 292.43 760.09 298.62 646.41 322.56 505.99 374.72 401.32 471.98 339.24 654.43 361.53 682.45 333.59 476.3 304.6 424.64 247.25 487.95 176.67 605.45 120.65 716.72 85.13 752.51 104.34 715.4 171.01 627.49 280.67 525.93 373.09 442.98 373.52 363.8 268.06 309.83 109.84 280.84 9.62 251.85 41.33 250.57 166.04 279.51 313.08 312.2 407.65 368.51 432.48 418.42 398.94 417.53 347.43 350.98 313.45 218.46 279.97 79.7 277.62 4.64 306.61 56.3 335.61 199.44 393.2 337.22 476.93 392.4 561.15 350.6 657.92 257.53 729.46 175 742.64 115.74 678.82 108.84 553.03 135.15 449.58 179.2 429.62 224.3 529.84 253.29Q529.84 253.29 529.84 253.29" opacity="0.44"></path><path d="M494.45 226.29C627.17 250.45 724.76 284.85 747.05 334.69 697.02 393.52 597.99 477.83 494.04 579.3 396.8 668.91 329.73 732.67 289.05 734.62 261.18 672.86 240.05 557.99 215.89 441.26 191.72 389.22 166.82 418.47 152.81 499.75 151.63 603.58 180.98 677.22 246.56 702.85 318.84 690.31 392.24 645.41 424.55 593.3 384.56 532.73 277.17 485.12 144.45 460.96 53.01 436.8 52.58 438.37 129.24 457.06 248.52 467.3 361.77 474.49 438.15 455.36 477.97 398.07 485.44 298.79 483.06 177.25 469.86 78.26 470.23 39.22 494.39 91.26 518.55 207.99 564.22 332.65 619.3 412.13 663.55 427.88 693.79 389.75 685.64 331.81 640.92 262.02 553.3 215.41 451.73 198.45 392.78 190.49 403.01 202.13 494.45 226.29Q494.45 226.29 494.45 226.29" opacity="0.87"></path><path d="M459.9 367.72C566.05 387.05 655.69 426.74 702.76 482.14 706.01 536.34 665.18 600.23 602.01 658.61 523.84 695.08 451.27 700.81 395.58 662.55 342.6 592.53 305.92 497.01 286.59 406.35 267.26 357.72 267.11 360.79 286.6 403.97 308.79 476.88 351.19 548.45 404.02 599.62 441.86 636.99 462.19 647.5 444.76 639.22 383.53 622.95 286.05 601.35 179.9 582.03 100.45 562.7 77.94 547.47 110.11 530.24 182.85 505.01 273.39 464.34 356.57 401.64 431.67 325.12 485.06 233.05 519.7 145.97 546.34 88.62 566.61 77.72 585.94 126.35 605.27 217.01 621.82 320.36 628.68 404.55 627.54 456.98 604.33 471.76 554.57 460.62 496.72 427.58 426.68 393.86 368.12 373.15 350.11 351.25 380.43 348.39 459.85 367.71Q459.9 367.72 459.9 367.72" opacity="0.53"></path><path d="M424.89 540.38C583.08 569.37 668.46 628.66 655.17 656.92 583.52 629.6 502.26 514.45 473.26 371.31 444.27 319.65 473.04 371.31 506.68 445.33 481.97 528.16 373.08 555.58 214.89 526.59 114.63 497.59 148.02 417.67 245.42 296.84 368.72 184.81 457.77 109.65 486.76 161.31 515.76 304.45 479.2 443.11 393.91 508.44 334.51 518.18 324.63 511.39 424.89 540.38Q424.89 540.38 424.89 540.38" opacity="0.71"></path><path d="M389.9 576.92C593.48 615.57 623.62 531.16 584.97 336.35 546.31 296.44 453.48 387.05 249.9 348.4 144.19 309.74 260.15 156.44 298.81 196.35 337.46 391.16 284.19 538.26 389.9 576.92Q389.9 576.92 389.9 576.92" opacity="0.20"></path></g></svg>